<svg width="35" height="35" viewBox="0 0 35 35" fill="none" xmlns="http://www.w3.org/2000/svg">
<path d="M15.0063 5.62922L2.65417 26.2501C2.39949 26.6911 2.26474 27.1911 2.26332 27.7004C2.26189 28.2097 2.39384 28.7105 2.64604 29.1529C2.89824 29.5954 3.26189 29.9641 3.70082 30.2223C4.13976 30.4806 4.63867 30.6195 5.14792 30.6251H29.8521C30.3613 30.6195 30.8602 30.4806 31.2992 30.2223C31.7381 29.9641 32.1018 29.5954 32.354 29.1529C32.6062 28.7105 32.7381 28.2097 32.7367 27.7004C32.7353 27.1911 32.6005 26.6911 32.3458 26.2501L19.9938 5.62922C19.7338 5.20063 19.3677 4.84627 18.9309 4.60034C18.4941 4.35442 18.0013 4.22522 17.5 4.22522C16.9987 4.22522 16.5059 4.35442 16.0691 4.60034C15.6323 4.84627 15.2662 5.20063 15.0063 5.62922V5.62922Z" stroke="white" stroke-width="3" stroke-linecap="round" stroke-linejoin="round"/>
<path d="M17.5 13.125V18.9583" stroke="white" stroke-width="3" stroke-linecap="round" stroke-linejoin="round"/>
<path d="M17.5 24.7916H17.5146" stroke="white" stroke-width="3" stroke-linecap="round" stroke-linejoin="round"/>
</svg>
