<svg xmlns="http://www.w3.org/2000/svg" viewBox="0 0 41.25 37.49">
	<defs>
		<style>
			.cls-1{fill:#fff;}
		</style>
	</defs>
	<g id="Calque_2" data-name="Calque 2">
		<g id="Calque_1-2" data-name="Calque 1">
			<path fill="currentColor" d="M17.74,7.49l1-1.11v6.74a1.88,1.88,0,0,0,3.75,0V6.38l1,1a1.93,1.93,0,0,0,.61.45,1.84,1.84,0,0,0,1.5,0,1.88,1.88,0,0,0,.63-.42,1.69,1.69,0,0,0,.41-.61,1.92,1.92,0,0,0,0-1.44,1.69,1.69,0,0,0-.41-.61L22,.53a1.91,1.91,0,0,0-.62-.39,1.87,1.87,0,0,0-1.43,0,1.91,1.91,0,0,0-.62.39L15,4.75a2,2,0,0,0-.57,1.37,1.95,1.95,0,0,0,1.94,1.94A2,2,0,0,0,17.74,7.49Zm2.88,11.25a5.62,5.62,0,0,0-4,9.6,5.62,5.62,0,0,0,8.65-.85,5.63,5.63,0,0,0-4.68-8.75Zm0,7.5a1.85,1.85,0,0,1-1-.32,1.78,1.78,0,0,1-.69-.84,1.82,1.82,0,0,1-.1-1.08,1.86,1.86,0,0,1,1.47-1.47,1.82,1.82,0,0,1,1.08.1,1.9,1.9,0,0,1,.84.69,1.86,1.86,0,0,1,.32,1.05,1.88,1.88,0,0,1-1.88,1.87ZM7.5,24.37a1.85,1.85,0,0,0,.32,1,1.78,1.78,0,0,0,.84.69,1.82,1.82,0,0,0,1.08.1,1.87,1.87,0,0,0,1-.51,1.84,1.84,0,0,0,.51-1,1.85,1.85,0,0,0-.79-1.92,1.85,1.85,0,0,0-1-.32A1.88,1.88,0,0,0,7.5,24.37Zm26.25,0a1.86,1.86,0,0,0-.32-1.05,1.9,1.9,0,0,0-.84-.69,1.82,1.82,0,0,0-1.08-.1A1.86,1.86,0,0,0,30,24a1.82,1.82,0,0,0,.1,1.08,1.89,1.89,0,0,0,1.74,1.16,1.88,1.88,0,0,0,1.87-1.87Zm1.87-13.13h-7.5a1.88,1.88,0,0,0,0,3.75h7.5a1.88,1.88,0,0,1,1.88,1.88v15a1.88,1.88,0,0,1-1.88,1.87h-30a1.88,1.88,0,0,1-1.87-1.87v-15A1.88,1.88,0,0,1,5.62,15h7.5a1.88,1.88,0,1,0,0-3.75H5.62A5.63,5.63,0,0,0,0,16.87v15a5.63,5.63,0,0,0,5.62,5.62h30a5.63,5.63,0,0,0,5.63-5.62v-15a5.63,5.63,0,0,0-5.63-5.63Z" />
		</g>
	</g>
</svg>
