<svg xmlns="http://www.w3.org/2000/svg" viewBox="0 0 238.52 70">
	<defs>
		<style>
			.cls-1{fill:#219037;}
		</style>
	</defs>
	<g id="Calque_2" data-name="Calque 2">
		<g id="Calque_1-2" data-name="Calque 1">
			<path class="cls-1" d="M68.71,70c.72-3.9,1.39-7.6,2.09-11.3q4.86-26,9.74-52.06c.34-1.84.7-3.71,1-5.57.12-.71.4-1.16,1.22-1a4.82,4.82,0,0,0,.76,0h87C170,3,169.52,5.77,169,8.57c-.1.54-.21,1.07-.31,1.61-.48,2.38-.48,2.38-3,2.38H143.19c-1.82,0-1.84,0-2.16,1.74Q140,20.18,138.9,26.06c-.08.41-.1.82-.16,1.44h25.81c-.65,3.51-1.24,6.8-1.87,10.08-.5,2.6-.5,2.6-3.19,2.6-7.3,0-14.61,0-21.92,0-.86,0-1.28.22-1.44,1.12-.89,5.12-1.83,10.24-2.74,15.36,0,.24,0,.48,0,.73h27.13c-.66,3.55-1.26,6.85-1.88,10.13-.48,2.49-.51,2.49-3,2.49H116.19c3.58-19.15,7.13-38.17,10.71-57.33-.61,0-1.05-.1-1.49-.1-10,0-20.07,0-30.11,0-1.08,0-1.54.31-1.72,1.41-.7,4.22-1.5,8.42-2.25,12.63a7.22,7.22,0,0,0,0,.93h28.22c-.32,1.84-.6,3.48-.9,5.12-.39,2.1-.86,4.19-1.16,6.3-.15,1-.6,1.26-1.57,1.26-8.48,0-17,0-25.45-.05-1.16,0-1.67.24-1.88,1.5C87.8,46.5,86.87,51.32,86,56.15c0,.42-.07.84-.08,1.26h28.17c-.53,2.91-1,5.62-1.52,8.33-.21,1.16-.39,2.32-.69,3.45-.09.32-.55.57-.89.76a1.92,1.92,0,0,1-.76,0H68.71Z" />
			<path fill="currentColor" d="M238.52,61.56H226.37c-.36-4.3-.72-8.54-1.09-12.93H221.7c-3.37,0-6.72,0-10.08,0a1.64,1.64,0,0,0-1.86,1.19c-1.58,3.93-3.24,7.84-4.92,11.72a1.64,1.64,0,0,1-1.1.91c-6.13,0-12.26-.1-18.39-.1a14.55,14.55,0,0,1-7.56-2.41c-8.52-5.09-12.2-12.72-11.8-22.48.43-10.35,5.65-18.09,13.62-24.12,3.72-2.82,8.31-3.71,12.85-4.41a30.65,30.65,0,0,1,18.34,2.41c-1,3.07-2,6.15-3,9.18a50.83,50.83,0,0,0-6.3-1.43c-6.62-.71-12.81.28-17.44,5.66-4.17,4.84-6.21,10.39-4.42,16.79a13.48,13.48,0,0,0,9.88,9.94c1.92.5,4.08.09,6.13,0,.36,0,.82-.53,1-.92,6.55-13.1,13.12-26.19,19.53-39.36.91-1.87,1.84-2.54,3.9-2.41,3.43.22,6.89.08,10.33.09h1.48C234.11,26.46,236.3,43.94,238.52,61.56ZM224.49,39c-.48-5.87-1-11.59-1.44-17.32a.88.88,0,0,0-.18-.39.89.89,0,0,0-.35-.26,1.32,1.32,0,0,0-.84.32c-.15.11-.18.37-.26.57Q218.06,30,214.69,38.1a7.75,7.75,0,0,0-.27.94Z" />
			<path fill="currentColor" d="M58.54,8.94C55.41,23.05,52.3,37,49.15,51.18H68.34a6,6,0,0,1,0,.85c-.54,2.8-1.09,5.6-1.62,8.4-.11.59-.23,1-1,1q-15.5,0-31,0a1.87,1.87,0,0,1-.42-.13q4.66-21,9.37-42.13c-.55,0-1-.06-1.37-.06-6.34,0-12.68,0-19,0-1.09,0-1.41.37-1.61,1.36-.71,3.49-1.52,7-2.34,10.64h18.3c-.64,3.33-1.21,6.46-1.88,9.58-.07.28-.81.6-1.25.6-5.33,0-10.66.06-16,0-1.15,0-1.57.33-1.81,1.45-1.24,5.85-2.59,11.7-3.86,17.57-.19.9-.53,1.22-1.48,1.21-3.73-.06-7.46,0-11.38,0C.48,59.18.93,57.1,1.39,55q5-22.48,10-45c.2-.89.51-1.22,1.47-1.22q22.23,0,44.46,0C57.69,8.87,58.05,8.91,58.54,8.94Z" />
		</g>
	</g>
</svg>
