<svg xmlns="http://www.w3.org/2000/svg" viewBox="0 0 41.25 37.5">
	<defs>
		<style>
			.cls-1{fill:#fff;}
		</style>
	</defs>
	<g id="Calque_2" data-name="Calque 2">
		<g id="Calque_1-2" data-name="Calque 1">
			<path fill="currentColor" d="M20.62,18.75a5.63,5.63,0,1,0,4,1.65A5.59,5.59,0,0,0,20.62,18.75Zm0,7.5a1.85,1.85,0,0,1-1-.32,1.78,1.78,0,0,1-.69-.84,1.82,1.82,0,0,1-.1-1.08,1.86,1.86,0,0,1,1.47-1.47,1.82,1.82,0,0,1,1.08.1,1.78,1.78,0,0,1,.84.69,1.86,1.86,0,0,1,.32,1.05,1.88,1.88,0,0,1-1.88,1.87ZM19.29,14.46a1.91,1.91,0,0,0,.62.39,1.78,1.78,0,0,0,1.43,0,1.91,1.91,0,0,0,.62-.39l4.29-4.22A1.94,1.94,0,1,0,23.51,7.5l-1,1.11V1.88a1.88,1.88,0,1,0-3.75,0V8.61l-1-1.11A1.94,1.94,0,1,0,15,10.24Zm14.46,9.92a1.86,1.86,0,0,0-.32-1.05,1.78,1.78,0,0,0-.84-.69,1.82,1.82,0,0,0-1.08-.1A1.86,1.86,0,0,0,30,24a1.82,1.82,0,0,0,.1,1.08,1.89,1.89,0,0,0,1.74,1.16,1.88,1.88,0,0,0,1.87-1.87Zm1.87-13.13H30a1.9,1.9,0,0,0-1.33.55,1.87,1.87,0,0,0,0,2.65A1.9,1.9,0,0,0,30,15h5.62a1.88,1.88,0,0,1,1.88,1.88v15a1.88,1.88,0,0,1-1.88,1.87h-30a1.88,1.88,0,0,1-1.87-1.87v-15A1.88,1.88,0,0,1,5.62,15h5.63a1.9,1.9,0,0,0,1.33-.55,1.9,1.9,0,0,0,0-2.65,1.9,1.9,0,0,0-1.33-.55H5.62A5.63,5.63,0,0,0,0,16.88v15A5.63,5.63,0,0,0,5.62,37.5h30a5.63,5.63,0,0,0,5.63-5.62v-15a5.63,5.63,0,0,0-5.63-5.63ZM7.5,24.38a1.85,1.85,0,0,0,.32,1,1.78,1.78,0,0,0,.84.69,1.82,1.82,0,0,0,1.08.1,1.86,1.86,0,0,0,1.47-1.47,1.82,1.82,0,0,0-.1-1.08,1.78,1.78,0,0,0-.69-.84,1.85,1.85,0,0,0-1-.32A1.88,1.88,0,0,0,7.5,24.38Z" />
		</g>
	</g>
</svg>
